# xmcd
#
# Track frame offsets:
#	150
#	17932
#	29417
#	41135
#	55247
#	69879
#	83562
#	100162
#	117187
#	130614
#	145553
#	161265
#	176104
#	187773
#	206064
#	221616
#	236869
#	250463
#	269598
#	285298
#	298900
#	310622
#	327208
#
# Disc length: 4601 seconds
#
# Revision: 0
# Processed by: cddbd v1.5.1PL0 Copyright (c) Steve Scherf et al.
# Submitted via: dBpowerAMP V4.0
#
DISCID=4c11f717
DTITLE=Varios - Varios Norteños
DYEAR=2004
DGENRE=Country
TTITLE0=Me estoy enamorando
TTITLE1=Buscando novia
TTITLE2=Ven
TTITLE3=La cruda
TTITLE4=Millas y Millas
TTITLE5=Carta envenenada
TTITLE6=Sentimiento de dolor
TTITLE7=Por que nos dijimos adios
TTITLE8=Las fuerzas del amor
TTITLE9=Palomito
TTITLE10=Ese loco soy yo
TTITLE11=La llamada
TTITLE12=Dos lagrimas
TTITLE13=Mentirosa
TTITLE14=No te vayas de mi lado
TTITLE15=No tiene la culpa el Indio
TTITLE16=No te olvidare
TTITLE17=El pasadiscos
TTITLE18=El desengaño
TTITLE19=Quiereme como te quiero
TTITLE20=No dejaras de amarme
TTITLE21=Estoy enamorado
TTITLE22=Jose Perez Leon
EXTD=
EXTT0=
EXTT1=
EXTT2=
EXTT3=
EXTT4=
EXTT5=
EXTT6=
EXTT7=
EXTT8=
EXTT9=
EXTT10=
EXTT11=
EXTT12=
EXTT13=
EXTT14=
EXTT15=
EXTT16=
EXTT17=
EXTT18=
EXTT19=
EXTT20=
EXTT21=
EXTT22=
PLAYORDER=
